<?xml version="1.0" encoding="UTF-8"?>
<svg version="1.1" viewBox="210 80 750 580" width="750" height="580" xmlns="http://www.w3.org/2000/svg">
<path transform="translate(830,91)" d="m0 0 1 3-9 10-8 11-14 18-13 16-9 12-8 10-9 11-11 14-8 10-10 13-14 18-22 28-14 18-11 14-8 10-11 14-14 18-12 15-10 13-11 14-10 13-8 10-11 14-14 18-10 13-12 15-6 15-8 26-9 25-24 72-4 10-2 1-1-11-4-87-2-41-2-44-1-12-1-3-4-2-16-12-15-12-30-23-28-22-18-14-13-10-18-14-13-10-4-3 1-3 30-11 18-7 12-5 20-8 16-6 27-11 17-6 68-27 16-6 41-16 49-19 27-11 42-16 31-12 12-5 19-7 12-5 31-12z" fill="#06B6D4"/>
<path transform="translate(844,99)" d="m0 0h1l-1 13-7 39-5 25-7 38-5 24-7 37-6 31-8 43-5 25-12 63-6 31-10 54-10 53-5 24-4 23-2 11-3 2-10-9-11-9-15-13-11-9-14-12-11-9-9-8-10-8-28-24-10-8-28-24-11-9-14-12-8-7 2-5 13-17 22-28 10-13 12-15 10-13 12-15 9-12 12-15 11-14 13-17 12-15 6-8 11-14 8-10 13-17 12-15 10-13 14-18 12-15 10-13 8-10 11-14 14-18 8-10 13-16z" fill="#10B981"/>
<path transform="translate(844,99)" d="m0 0h1l-1 13-7 39-5 25-7 38-5 24-7 37-5 25h-2l-1 11-3 13-7 37-2 11-1 1-4 25-3 12-4 25h-2v8h-1l-1-9 3-12h-4l1-7-5 1-1 13-8-1-2-5-1-7-1-5-2-2v2l-9 2 2 4 4-1 1 3-10 2-3-2-1-7h-5l-1 7-2 4-4-1v4h4l-1 3h-2l-1 3-5-2-2-5 2-5-5-3-9 2v2h5l2-1 3 9-1 2-9-1-2-7-4-21-3-17-4-20-2-9-1-12-2-10-11 1h-4l-1 4 6 3 4 5-2 2h-7l-4-5-4-2-4-3v-2h-3l1-5h2l2-5 3-1 2-5 1-2h2l2-4 9-13 3-6 7-9 11-14 8-10 13-17 12-15 10-13 14-18 12-15 10-13 8-10 11-14 14-18 8-10 13-16z" fill="#10B981"/>
<path transform="translate(830,91)" d="m0 0 1 3-9 10-8 11-14 18-13 16-9 12-8 10-9 11-11 14-8 10-10 13-14 18-22 28-14 18-11 14-8 10-11 14-14 18-12 15-10 13-11 14-10 13-8 10-11 14-14 18-10 13-12 15-6 15-8 26-9 25-24 72-4 10-2 1-1-11-4-87-2-41-2-44-1-12-1-3-4-2-1-2 6 3v2l5-3 15-14 8-7 15-14 3-1v-2l8-7 15-14 14-12 12-12 7-6 1-2h3v-2l8-7 7-8 12-11 4-2v-2l8-7 15-14 10-9 13-12 24-22 26-24 8-7 10-10 8-7 13-12 10-9 13-12 10-9 15-14 10-9 10-10 10-8-8 1 3-2z" fill="#06B6D4"/>
<path transform="translate(825,94)" d="m0 0 3 1-9 8-8 7-11 11-8 7-15 14-12 11-10 9-13 12-10 9-12 11-8 8-8 7-12 11-26 24-48 44-4 2v2l-8 7-4 4-5-1v-7h-5l-1-3 1-6 7-7v3 2h2l1-7 3-1-3-3-2 2-6-1-1-1-7-1v-2l-10 1-29 1-22 2-14-2-4-2-1-5 4-2 1-5 1-4 2-2 1 1-1-7-1-3-3-1-6-8-2-6-8-2h-5l3-2 22-9 4-1 3-3 16-6 46-18 49-19 27-11 42-16 31-12 12-5 19-7 12-5 31-12 11-4z" fill="#10B981"/>
<path transform="translate(464,280)" d="m0 0 9 1v2h5l6 7v2h-5v6l8 2 7 3-1 3-13 1-5 3-4 3v3l3 1v-2l5-2 2 3v10l-4 2 3 2v12l-2 4 8-3 1 3-1 3h-7l-1 8v2l4 2-1 3h-5l-1 3 6 1 3 2v2l-7 2-1 4 5 3 3 3 3 6 6 2 3 4 4-1 3-3 2 1-16 15-8 7-4 1v-2l-4-2-5-2-12-9-15-12-30-23-28-22-18-14-13-10-18-14-13-10-4-3 1-3 8-3 3 1-3 2h10l33-3 53-4z" fill="#06B6D4"/>
<path transform="translate(852,145)" d="m0 0 4 1 16 12 19 14 16 12 9 6v2l5 2 9 8 5 32 4 26 6 38 2 12v8l-10 14-13 18-13 19-13 18-13 19-13 18-12 16-13 19-8 11-7 11-11 15-13 18-11 16-13 18-8 12h-2l-1 2 1-11 5-23 7-11 10-13 17-25 12-17 11-15 16-23 13-19 10-13 13-19 10-14 12-17 14-20 4-6v-2l-17-12-13-10-11-8-12-9-3-4 1-8 4-7 12-17 13-18 8-12-1-3-16-12-18-13-16-12-9-7-1-4 2-10z" fill="#10B981"/>
<path transform="translate(830,91)" d="m0 0 1 3-9 10-8 11-14 18-13 16-9 12-8 10-9 11-11 14-8 10-10 13-14 18-22 28-14 18-11 14-8 10-11 14-14 18-4 1-2 4-4 4-3-1v-2l2-1-2-2 2-1 1-9v-3h-4-6l-6-3-1-4-12-2h-3l-2 3-2-3 3-7h2l1-4-4 3-2-1 8-8 8-7 4-4h2v-2l8-7 15-14 10-9 13-12 24-22 26-24 8-7 10-10 8-7 13-12 10-9 13-12 10-9 15-14 10-9 10-10 10-8-8 1 3-2z" fill="#10B981"/>
<path transform="translate(546,490)" d="m0 0 5 2 15 13 11 9 15 13 14 12 4 4v2l-11 9-16 13-14 11-13 11-10 8-13 10-13 11-14 11-6 5h-2l1-7 8-24 13-38 18-54 7-20z" fill="#06B6D4"/>
<path transform="translate(490,435)" d="m0 0 11 4h4l-2 5-1 5 3 2h5l1-2-4-2h4l-2-4-2-2 1-1h8l-1 4 5-1h1l4-1 7 7h-3l1 2h-3l3 6-1 5h2v9l-1 6-1 13-5 14-4 8-3 3-5 26-8 24-3 5-6 12-1 6v7l-1 2h-2l-1 7h-1l-1-13v-9l-2-18-1-15-1-42-2-31v-19l2-5 2-3-1-5 2-3 2 3h2v-2l-4-2 3-1z" fill="#06B6D4"/>
<path transform="translate(596,309)" d="m0 0h2l-1 5-2 2-2 5 1-1 4-2 4 2 10 1v5l12 3 1-2 5 3-2 7-1 5v3h-2l2 2 6-5 1-2 2 1-13 17-11 14-8 10-9 12-8 10-11 14h-2v-2l-2-1 5-2v-2h2l2-5v-3l-10-4-1-5 1-2-4-2-1-5h-2l-1-4-6 1-5-5-9-6-1-5-6 1-2-2 10-9 11-10 8-7 9-9 7-6 1-2h3v-2l8-7z" fill="#06B6D4"/>
<path transform="translate(919,194)" d="m0 0 4 2 7 6 5 32 4 26 6 38 2 12v8l-10 14-13 18-13 19-13 18-13 19-13 18-12 16-13 19-8 11-7 11-11 15-13 18-11 16-13 18-8 12h-2l-1 2 1-11 5-23 7-11 10-13 17-25 12-17 11-15 16-23 13-19 10-13 13-19 10-14 12-17 14-20 4-6v-2l-17-12-13-10-11-8-7-5 3-1 14 10v2l5 2 14 10v2l5 2 2 1v2l5 2 3 3-2 5-4 6h5l1 3 3 1v2h2l2-5 7-10-2-12-1-11-1-1-2-17-4-25-2-13-5-33-4-5-5-3z" fill="#10B981"/>
<path transform="translate(830,91)" d="m0 0 1 3-9 10-8 11-14 18-13 16-9 12-8 10-9 11-11 14-8 10-10 13-14 18h-3l-1 3-6 1-2 5h-2l-1 4-5 4-7 3-4 1v-2l-4-1-3-2h-3l1 6-8 1-2-1v-10l-2-2 1-5 7-7 8-7 16-15 12-11 8-7 10-10 8-7 13-12 10-9 13-12 10-9 15-14 10-9 10-10 10-8-8 1 3-2z" fill="#10B981"/>
<path transform="translate(928,369)" d="m0 0h3v2h2v2h2v2h2l7 8 3 9v10l-9 10-11 11-7 8-8 8-7 8-16 17-12 13-15 16-7 8-11 12-12 13-11 12-13 14-7 8-13 13-5 6-1-3 10-14 8-11 24-34 10-15 10-14 18-18 7-8 8-8 7-8 10-11 7-8 12-12 1-2h2l2-4 12-13-1-4-9-9 1-5z" fill="#10B981"/>
<path transform="translate(546,490)" d="m0 0 5 2 15 13 11 9 15 13 14 12 4 4v2l-11 9-2 1-6-1v2l-5-1-5-5-1-3h3l-2-2-9-2-2-2-4-2v-3h2v-2l-6-1-5-2-4-3h-3l-3-3v-2l1-1h-3l-3-5-1-7h-2l3-10z" fill="#06B6D4"/>
<path transform="translate(525,558)" d="m0 0 8 2 5 3 4 8 2 2h6l6 7 1 5-5 5h-2v2l-11 8-5 4h-2l-1 3h-2v2l-7 5-2 4-14 11-6 5h-2l1-7 8-24 1-2h2l3-11 5-15 6-16z" fill="#10B981"/>
<path transform="translate(928,369)" d="m0 0h3v2h2v2h2v2h2l3 6 4 5 2 14-6 8-16 16-7 5-7 11-21 21-6-2-3-6 4-5 4-7 16-17 9-9 1-2h2l2-4 12-13-1-4-9-9 1-5z" fill="#10B981"/>
<path transform="translate(928,366)" d="m0 0 7 1 3 5 4 2 3 6 4 3 1 12 1 1v5l-6 10-10 9-5 3-13 13-3 7-8 7-3 4h-2l-2 4-7 6h-2l-2 4-12 12-1 2h-2l-3 6h-2l-1 4h-2l-2 6-4 2v2h-2l-2 4-5 6h-2l-1 3h-2l-2 4-6 5-5 5-4 5-5 5-8 9-6 8-5 2-2 5h-3v2h-2l-2 4-3 1-2 4-5 5h-2l-2 4-4 3h-2l2-5 7-11 9-13 4-8 3-1 1-4 5-9v-2l6-3 8-10 7-11 2-5 3-4 3-7 7-7 4-5 2-1 1-3 10-6 1-2h2l2-4 8-8 3-4 1-5h2l1-3 5-5 5-6 6-6 1-2h2v-3h5l8-8 5-6 1-5 5-5 1-9-4-2-2-3 1-8 5-8zm0 3-8 11 1 4 9 9-1 4-13 14v2h-2l-7 8-12 12-7 8-18 20-7 7-7 8-13 13-13 19-11 16-20 28-12 17-5 7 1 3 14-15 10-10 7-8 11-12 14-15 9-10 13-14 7-8 12-13 15-16 12-13 14-15 15-16 9-9 2-3v-10l-3-9-7-8h-2v-2h-2v-2h-2v-2z" fill="#020617"/>
<path transform="translate(843,440)" d="m0 0 1 2h2l1 2 7 1-4 7-2 3h-2l-2 5-5 8-3 7-13 19-3 3h-3v2h-2v3h-2l-2 5-6 7-4 7-11 16-3 3-6-1-1-2v-8l9-14h2l1-4h2l3-6h2v-3h2v-2h2l1-5 7-11h2l2-5 3-5h2l2-5 1-2h2l2-5 1-2h2v-3h2l2-4z" fill="#10B981"/>
<path transform="translate(566,485)" d="m0 0 4 2 11 9 6 4v2l5 2 7 6v2h2v2l4 2 4 3v2l4 2 8 7 9 3 7 3 7 12v2h2v2l4 2 4 3v2l6 2 9 2 8 7 8 4 2 4 2 7 5 5 9 5h10l3-1v-2h5l4 1 1-5-1-4 5-7-1-4v-4h3l4 23 1 12-7-1-7 1 1 7 2 6 2 4h2v2l8-2v-2h2l3 9 2-2v7l-3 2-10-9-11-9-15-13-11-9-14-12-11-9-9-8-10-8-28-24-10-8-28-24-11-9-8-7z" fill="#10B981"/>
<path transform="translate(916,230)" d="m0 0 2 2 3 13 4 26 3 16v8l-5-2-9-8-14-10-10-8 2-5 13-19 6-7h2l2-4z" fill="#10B981"/>
<path transform="translate(557,479)" d="m0 0 4 2 10 9 22 18 10 9 11 9 17 14 28 24 9 7 11 10 11 9 14 12 11 9 14 12 13 11 2-1 8-45 6-28 2-11h1l2 10-3 11v7l-2 7 2 1-2 3h-2l-3 9-2 14-2 8v13l-4 5h-8l-13-13-5-2-4-3v-3l-2-1-2-4-6-3-10-7-2-4-5-2-8-8-6-2-4-6-1-4-2-1v-2l-7-1v-2l-5-1-3-4-7-4-1-3-4-2-5-6 1-3-4-2-8-7-2-1v-2l-5 1-8-7-6-6v-2l-5-2-6-8-5-4-7-2-2-5-5-2-8-7-6-3z" fill="#020617"/>
<path transform="translate(826,278)" d="m0 0 5 2 20 15 14 10 13 10 8 6-2 5-6 8-5-2-16-13-19-13-10-8-4-3v-9z" fill="#10B981"/>
<path transform="translate(531,539)" d="m0 0 5 1 1 6 4-1 7 5 2 2 4 2v2l6-1 3 2v3l3 3 2 7 2-1 1 5-4 2v2h-2l-1 4-13 11-17 13-10 9-3 1 1-3 5-4h2v-2l10-8 9-7h2v-2l6-5-1-5-5-6h-6l-4-4-3-7-6-3-6-1-4 10-3 10-7 20-2 2 1-7 13-38 4-11 2-1z" fill="#10B981"/>
<path transform="translate(545,488)" d="m0 0 4 1 11 6 7 7 5 3v2l2 1 4 5 2 1v2l5 2v2l4 2 10 7 7 6 6 8-3 5-6 5h-2l-2 5-9 7-4 4h-4v2l-5 1v2l-7 6-2 4-6 2-2 4-11 8-4 5-4 2-5 2-4 3h-2v2l-5 4-3 6-5 1-1 3-9 7-5 4-6-1 1-15 4-13 3-7h2l5-13 4-14-2-1 1-4 4-9 2-9 1-6 5-3 5-15v-11l3-2 6-17h2zm1 2-4 10-14 41-10 30-12 35-8 24v4l5-2 9-8 14-11 13-11 9-7 16-13 17-14 13-10 14-12 2-1-2-4-12-11-11-9-15-13-14-12-8-6z" fill="#020617"/>
<path transform="translate(830,91)" d="m0 0 1 3-9 10-8 11-14 18-13 16-9 12-3 1-8 10-1 1h-9l-2-6-1-5 8-8 8-7 26-24 12-11 9-9 10-8-8 1 3-2z" fill="#10B981"/>
<path transform="translate(829,90)" d="m0 0h4l-1 5-8 9-3 6-8 14-4 4-1 3-5 1-9 11-4 5-1 7-3 1v2h-2l-2 6-9 10-5 6-1 3-6 2-10 13h-2l-2 5-3 4-1 5h-2l-2 5-5 5-7 9-3 5-4 4h-2l-1 4-4 1v2h-2l-3 6h-2l-2 5-6 7-2 7-5 5-6 11-12 11-1 3-6 4-1 2h-2v2h-2l2-4 20-25 7-9 10-13 14-18 8-10 20-26 20-25 9-11 7-9 13-17 9-11 14-18 9-12 7-8v-2l-6 1 2-2z" fill="#020617"/>
<path transform="translate(819,321)" d="m0 0 4 2 11 8 13 10 14 10 2 2-1 4-6 8-2 1-19-14-16-12-3-2 1-13z" fill="#10B981"/>
<path transform="translate(474,415)" d="m0 0h2l2 3 2 32 2 49 4 79 1 24 1 10 4-10 24-72 11-31 8-25 4-10 3-2-2 5-5 14-2 12-5 14-4 7-7 21-4 18-4 9-6 15-5 15-3 16-3 6h-2v2l-3 1-3-6-1-40-3-50-2-55-1-5-1-38z" fill="#020617"/>
<path transform="translate(643,362)" d="m0 0 2 1-2 6-1 2 5-4 3 1 1-2h2l1 2 14 2v3 1l2 1-6 7h-3l-2-7-8-1-1 4-3 1 2 4h7v2l6-2 5 1 2 5-2 4-6 1-6-2h-11l-1-3-7-2-2 5-6-1-3-2-2-4 3-1 1-5 7-6 3-3v-2l5-1-2-2z" fill="#10B981"/>
<path transform="translate(846,486)" d="m0 0v3l-12 17-1 3 10 2 7-7 1-2 2 1-7 8-15 16-9 10-14 15-7 8-13 13-5 6-1-3 10-14 8-11 24-34 10-15 10-14z" fill="#06B6D4"/>
<path transform="translate(809,364)" d="m0 0 5 1 16 12 10 7 1 3-7 10-3 1-18-13-6-5 1-11z" fill="#10B981"/>
<path transform="translate(530,486)" d="m0 0 1 3-8 24-13 38-20 60-3 2-1-11-3-64v-30h1l3 56 2 18v11l1 9 1-5h2v-10l3-9 8-16 7-21 5-27 4-3 8-21z" fill="#06B6D4"/>
<path transform="translate(874,390)" d="m0 0h2l-2 4-8 11-14 20-13 19-8 11-13 18-17 25-8 11-12 17-2 5-5 27v2h2l2-5 6-8 1 2-10 15-4-1 3-21 2-7 2-10 7-11 3-5h3v-2h2l2-5 7-10 1-2h2l1-4 3-6 10-14 7-11h2l1-5 6-4 10-15 5-10h2l2-4 9-14 7-10 3-1z" fill="#020617"/>
<path transform="translate(848,430)" d="m0 0 1 2-10 15-7 10h-2v3h-2l-2 5-1 2h-2l-2 5-1 2h-2l-2 5-3 5h-2l-2 5-5 8-1 3h-2v2h-2v3h-2l-3 6h-2l-1 4h-2l-2 5-6 9v10h6l8-10 5-8 4-7 8-10 1-2h2v-3h2v-2h2l-2 4-13 19-10 14-13 18-5 8h-2l-1 2 1-11 5-23 7-11 10-13 17-25 12-17 11-15z" fill="#06B6D4"/>
<path transform="translate(660,310)" d="m0 0 1 3h-2l-2 4-9 14-1 2h-2l-2 5-5 5-6 8-1 3h-2l-2 4-4 2-1 5-8 7-6 8-13 18-9 12-1 2h-3l-2 4-7 8-3 5h-2l-2 5-3 4-2 5-3 4h-2l-2 4-6 5-4 6h-2l2-4 8-10 10-13 14-18 8-10 20-26 13-16 12-16 9-11 14-18z" fill="#020617"/>
<path transform="translate(777,141)" d="m0 0v3l3 3 2 5-1 3h-2l-2 6-5 5-6 7h-9l-2-6-1-5 8-8 8-7z" fill="#10B981"/>
<path transform="translate(316,290)" d="m0 0 2 1v2l17 13 18 14 12 9 15 12 13 10 14 11 13 10 18 14 14 11 13 10 9 7h-3l-4-2v-2h-5l-7-7-7-5-2-1v-3l-4-2-11-8-16-13-14-9-8-8-2-1v-2l-4-2-14-10-13-10v-2l-6-2-8-6-5-5-9-7-8-5-4-4v-2l-4-2-1-3z" fill="#020617"/>
<path transform="translate(808,362)" d="m0 0h7l10 7 12 9 5 5 1 5-2 5-5 6-5 1-5-2-12-8-4-4-3-1-2-5-1-9zm1 2-2 11v5l14 11 10 7 4-2 6-9-2-4-17-12-10-7z" fill="#020617"/>
<path transform="translate(566,485)" d="m0 0 4 2 11 9 6 4v2l5 2 7 6v2h2v2l4 2 4 3v2l4 2 8 7 9 3 7 3 7 12v2h2v2l4 2 4 3v2l4 1 5 5 2 3-4-2-10-8-28-24-10-8-28-24-11-9-8-7z" fill="#10B981"/>
<path transform="translate(793,514)" d="m0 0 4 3 1 9-9 12-4 2-4-1-1-2v-8l9-14z" fill="#10B981"/>
<path transform="translate(802,407)" d="m0 0 5 2 11 9-2 5-5 7-4-1-8-6 2-15z" fill="#06B6D4"/>
<path transform="translate(806,300)" d="m0 0h1l-1 12-6 30-6 32-12 63-2 10h-1v-12h2v-8l3-17 3-12 4-25 1-1 4-23 5-25 3-13 1-9z" fill="#10B981"/>
<path transform="translate(819,321)" d="m0 0 4 2-2 1-2-1v11l5 5 11 8 6 5v3l9 3h6v-8l7 3-1 4-6 8-2 1-19-14-16-12-3-2 1-13z" fill="#10B981"/>
<path transform="translate(919,194)" d="m0 0 4 2 7 6 5 32 4 26 6 38 2 12v8l-10 14-1-3 9-13-2-12-1-11-1-1-2-17-4-25-2-13-5-33-4-5-5-3z" fill="#10B981"/>
<path transform="translate(842,288)" d="m0 0 5 2 4 2 9 5 1 2 5 3v3h2v2l4 2 6 4 6 2 3 4v7l-5 8-4 2-7-1-4-5-5-3-2-5 4 2 12 9 3-1 6-9-2-4-17-12-13-10-11-8z" fill="#020617"/>
<path transform="translate(830,91)" d="m0 0 1 3-9 10-8 11-7 9h-4v-3l-6 4-4 2 5-6 8-7 11-11 10-8-8 1 3-2z" fill="#10B981"/>
<path transform="translate(938,378)" d="m0 0 7 6 2 8v10l-9 10-11 11-7 8-8 8-7 8-16 17-1-2 3-4h2l2-4 14-14 8-12 10-8 15-15 3-5-2-14-5-6z" fill="#10B981"/>
<path transform="translate(788,400)" d="m0 0h1l1 15-3 8-2 13-2 7v6l-3 1-1 11-3 12h-1l1-11 10-51z" fill="#020617"/>
<path transform="translate(848,456)" d="m0 0 1 2-4 7-2 6-6 7-7 11-2 4h-2v2h-2l-2 4-5 5-4 6h-2l2-4 8-11 13-18 10-16z" fill="#020617"/>
<path transform="translate(774,474)" d="m0 0h1v8l-2 6h2v6l-2 2-1 14-2 3v10l-4 1-1 12-3 11-1-4 9-47z" fill="#020617"/>
<path transform="translate(615,388)" d="m0 0 2 1-10 13-8 10-7 9-12 16-4 3 2-4 8-11 3-5h2l2-5 4-7 5-7 5-5h3l2-5 3-1z" fill="#020617"/>
<path transform="translate(658,339)" d="m0 0 3 2v2l5 1-2 1-1 7 4 1-2 4-10 1-4-2 2-1v-5h2l2-5 1-1-2-1v-2h2z" fill="#10B981"/>
<path transform="translate(566,485)" d="m0 0 4 2 11 9 6 4v2l5 2 7 6v2h2v2l4 2 4 3v2l4 2 8 7 4 2-1 3-11-9-28-24-11-9-8-7z" fill="#06B6D4"/>
<path transform="translate(565,311)" d="m0 0 5 1 7 3 2 6 2 1-5 3-7-5-7 1v-3h1z" fill="#10B981"/>
<path transform="translate(639,360)" d="m0 0 3 4-1 1 2 2-5 2 2 2h-4l-6 7-3 3-1 3-9 7v-3l13-16z" fill="#10B981"/>
<path transform="translate(321,289)" d="m0 0 2 1-3 2 15 12 5 3v2l4 2 14 10v2l5 2 10 8v2l-4-2-26-20-18-14-8-6 1-3z" fill="#06B6D4"/>
<path transform="translate(719,614)" d="m0 0 4 2 5 3v2h2v2l8-2v-2h2l3 9 2-2v7l-3 2-10-9-11-9z" fill="#10B981"/>
<path transform="translate(802,405)" d="m0 0 6 3 10 8 2 4-9 12h-6l-5-5-3-4 1-12h2v-5zm0 2-2 7-1 9 9 7 4-1 6-9-2-4-12-9z" fill="#020617"/>
<path transform="translate(848,430)" d="m0 0 1 2-10 15-7 10h-2v3h-2l-2 5-1 2h-2l-2 5-1 2h-2l-2 5-3 5h-2l-2 5-3 3 1-4 13-19 11-15 14-20z" fill="#06B6D4"/>
<path transform="translate(842,337)" d="m0 0 5 2 10 7 8 7-1 4-6 8-2 2-5-1-4-3-5-2-5-4-3-3 4-1 16 12 5-5 3-4-1-4-15-11z" fill="#020617"/>
<path transform="translate(880,278)" d="m0 0 4 1 13 9v2l5 2 14 10v2l5 2 2 1v2l5 2 3 3-2 5-5 6v-3l4-6v-2l-17-12-13-10-11-8-7-5z" fill="#10B981"/>
<path transform="translate(689,222)" d="m0 0 1 2-3 2-1 4-4 4-1 3-6 6h-2v2l-7-1 6-7 12-11z" fill="#10B981"/>
<path transform="translate(884,406)" d="m0 0 1 2-3 7-3 1-1 4-9 13-3 5-4 2-4 6-2-1 9-13 12-16z" fill="#020617"/>
<path transform="translate(646,348)" d="m0 0h2l-2 4-10 13-11 14-5 6-1-2 3-6 10-13 1-2h2v-2l5-4z" fill="#020617"/>
<path transform="translate(373,335)" d="m0 0 5 2 20 16 14 11 9 7 7 5-1 2-16-12-28-22-10-8z" fill="#06B6D4"/>
<path transform="translate(922,352)" d="m0 0 1 4-5 7-6 11-3 3h-2l-1 4-7 5 2-4 13-19z" fill="#020617"/>
<path transform="translate(856,350)" d="m0 0 7 3-1 4-6 8-2 1-9-7-1-3 6 2h6z" fill="#10B981"/>
<path transform="translate(937,250)" d="m0 0 1 2h2l1 9 1 8 3 3 1 9-1 1-1 9h-1l-6-37z" fill="#020617"/>
<path transform="translate(810,510)" d="m0 0 1 2-7 11-1 3h-2l-2 7h-2l-2 6-8 7-2 1 2-5 12-16 8-12z" fill="#020617"/>
<path transform="translate(922,405)" d="m0 0v3l-10 11-1 4-6 4h-2v2h-2v2h-2v2l-5 5-5 6h-2l2-4 15-16 9-9 1-2h2l2-4z" fill="#10B981"/>
<path transform="translate(803,322)" d="m0 0h1l-1 13-1 11-1 4-2 6v7l-2 2-2 8h-1l1-10 6-30z" fill="#020617"/>
<path transform="translate(527,545)" d="m0 0 1 3-7 21-3 10-7 20-2 2 1-7 13-38z" fill="#06B6D4"/>
<path transform="translate(908,342)" d="m0 0 2 1-21 30-1-2 2-5 7-10 8-13z" fill="#020617"/>
<path transform="translate(574,440)" d="m0 0h2l-2 4-13 17-5 5v-6l7-8 4-6 3-2z" fill="#020617"/>
<path transform="translate(816,325)" d="m0 0h1v13l17 12 2 3-4-2-12-7-1 2-3-3-1-4-4-2v-2l3-1z" fill="#020617"/>
<path transform="translate(834,303)" d="m0 0 4 2 19 13 3 4-7-2-4-1v-3l-5-2-4-3v-2l-5-1z" fill="#020617"/>
<path transform="translate(877,253)" d="m0 0h2l-2 4-4 9 1 7 10 8 3 3-6-1-1-3-5-2-2-4-4-1 1-10 2-5h2v-2z" fill="#020617"/>
<path transform="translate(805,491)" d="m0 0 1 3-3 6h-2v2h-2v3h-2l-3 6h-2l-1 4h-2l-2 5-6 9-2 5-1-3 5-10 10-13z" fill="#06B6D4"/>
<path transform="translate(672,292)" d="m0 0 2 1-10 13-13 16-7 9-1-3 6-7 9-12h2l2-4 8-10z" fill="#06B6D4"/>
<path transform="translate(817,497)" d="m0 0h2l-2 4-13 19-10 14-1-3 7-10 4-7 8-10 1-2h2v-3h2z" fill="#06B6D4"/>
<path transform="translate(556,585)" d="m0 0 3 1-14 12-12 9-11 9v-3l5-4h2v-2l10-8 9-7h2v-2z" fill="#06B6D4"/>
<path transform="translate(572,446)" d="m0 0v3l-10 13-6 8-1 4 3 2v2l5 2 1 3h2v2l-4-2-10-9 2-5 13-17z" fill="#06B6D4"/>
<path transform="translate(896,291)" d="m0 0 4 2 11 8 8 6-4 1-6-5-9-5v-2l-4 1-1-4z" fill="#020617"/>
<path transform="translate(825,278)" d="m0 0 1 4-1 4v9l9 7h-3l-9-4-1-3v-13z" fill="#020617"/>
<path transform="translate(686,300)" d="m0 0v3l-11 16h-2l-1 5h-2v2l-7 7-2-1 8-10 10-13z" fill="#10B981"/>
<path transform="translate(699,279)" d="m0 0h3l-2 4-8 10-12 16-3 2v-5l4-2 6-8 6-9h2v-2h2l1-5z" fill="#020617"/>
<path transform="translate(394,259)" d="m0 0 4 1-28 11-3-1 5-3h2v-2l7-2 8-3z" fill="#020617"/>
<path transform="translate(896,230)" d="m0 0v3l-7 11h-2l-2 5-7 10-6 12 1-8 4-7 12-17z" fill="#10B981"/>
<path transform="translate(922,310)" d="m0 0 4 2 3 2-2 5-11 16-1-3 4-6 3-5 2-5v-4h-2z" fill="#020617"/>
<path transform="translate(684,260)" d="m0 0 4 1 1 5-2 5-5-1-1-1v-7z" fill="#10B981"/>
<path transform="translate(599,534)" d="m0 0 5 3 6 6v2l-9 7h-2l4-8v-5l-4-3z" fill="#06B6D4"/>
<path transform="translate(347,278)" d="m0 0 3 1-24 9-5 2-3-1 10-4h2l1-3z" fill="#020617"/>
<path transform="translate(830,91)" d="m0 0 1 3-9 10-8 11-2 1 6-12 5-4 4-5-8 1 3-2z" fill="#06B6D4"/>
<path transform="translate(486,393)" d="m0 0 7 4 1 3-3 3-7-4-1-3z" fill="#06B6D4"/>
<path transform="translate(656,156)" d="m0 0h3v2l-18 7-9 4-3-1 7-3 2-3 10-2 5-2h3z" fill="#020617"/>
<path transform="translate(704,252)" d="m0 0v3l-11 14-10 13-2 1 2-5 9-11 6-8z" fill="#06B6D4"/>
<path transform="translate(821,321)" d="m0 0 4 1 2-1 2 1v3h2v2l5 2 1 4h2l-1 2-13-10z" fill="#020617"/>
<path transform="translate(791,570)" d="m0 0v3l-6 6-2-1zm-10 6 2 3-2 4-4 3h-2l2-5z" fill="#020617"/>
<path transform="translate(826,276)" d="m0 0 5 1 2-1v2l4 2 3 4 2 4-4-2-10-7-2-1z" fill="#020617"/>
<path transform="translate(844,99)" d="m0 0h1l-1 13-3 15h-1l1-12 1-10-5 4 2-4z" fill="#10B981"/>
<path transform="translate(629,373)" d="m0 0v3l-3 8-9 7v-3z" fill="#10B981"/>
<path transform="translate(588,183)" d="m0 0h5l-2 2-26 10-2-1 4-1v-2l20-7z" fill="#020617"/>
<path transform="translate(837,470)" d="m0 0 1 2-11 16-7 9-1-2 3-5h2l2-5z" fill="#06B6D4"/>
<path transform="translate(642,549)" d="m0 0 4 1v2l4 2 4 3v2l4 1 5 5 2 3-4-2-10-8-9-8z" fill="#06B6D4"/>
<path transform="translate(781,528)" d="m0 0h1l2 7h5l2-1-2 4-4 2-4-1-1-2v-8z" fill="#10B981"/>
<path transform="translate(570,301)" d="m0 0 7 1 4-1-1 4-10 2-1-5z" fill="#10B981"/>
<path transform="translate(904,424)" d="m0 0h2l-1 3h-2v2h-2v2h-2v2l-5 5-5 6h-2l2-4z" fill="#06B6D4"/>
<path transform="translate(505,216)" d="m0 0 3 1-17 7h-3v-2l11-5z" fill="#020617"/>
<path transform="translate(566,485)" d="m0 0 4 2 11 9 6 4 1 4-8-6-13-11z" fill="#06B6D4"/>
<path transform="translate(321,289)" d="m0 0 2 1-3 2 14 11-1 2-16-12 1-3z" fill="#06B6D4"/>
<path transform="translate(503,615)" d="m0 0 1 4-3 11 5-2-5 5-3 1 1-7z" fill="#06B6D4"/>
<path transform="translate(852,143)" d="m0 0 3 1-3 1-2 17h-2l-1-4 1-11z" fill="#020617"/>
<path transform="translate(782,421)" d="m0 0h1v11l-3 15h-1v-12h2v-8z" fill="#10B981"/>
<path transform="translate(574,513)" d="m0 0 4 2 12 10-1 2-9-7-3-1-1-4h-2z" fill="#06B6D4"/>
<path transform="translate(546,490)" d="m0 0 5 2 8 7-1 2-8-7-4 2-2 2 1-7z" fill="#06B6D4"/>
<path transform="translate(782,529)" d="m0 0 7 2 1 2-2 1 1 2h-5l-2-2z" fill="#06B6D4"/>
<path transform="translate(809,371)" d="m0 0 1 2h3v9l-4-2-1-3z" fill="#10B981"/>
<path transform="translate(946,318)" d="m0 0 1 3-4 8h-2l-1 2h-3z" fill="#020617"/>
<path transform="translate(530,486)" d="m0 0 1 3-5 16h-2l1-7z" fill="#06B6D4"/>
<path transform="translate(658,333)" d="m0 0h2l-2 4-9 11-1-2 6-9z" fill="#020617"/>
<path transform="translate(922,309)" d="m0 0 5 1 4 4-2 5-5 6v-3l4-6v-2l-6-4z" fill="#10B981"/>
<path transform="translate(786,405)" d="m0 0h1l-1 11-2 10h-1l1-16z" fill="#10B981"/>
<path transform="translate(448,238)" d="m0 0 4 1-15 6-3-1 3-3 9-2z" fill="#020617"/>
<path transform="translate(735,426)" d="m0 0 6 1-2 6-4-2z" fill="#10B981"/>
<path transform="translate(775,161)" d="m0 0 2 1-7 9-5 6v-3z" fill="#10B981"/>
<path transform="translate(486,314)" d="m0 0 5 1v5h-4l-2-4z" fill="#06B6D4"/>
<path transform="translate(636,386)" d="m0 0 3 3-2 4-3 2-4-1 4-1z" fill="#10B981"/>
<path transform="translate(704,252)" d="m0 0v3l-9 11-2 1 2-5z" fill="#06B6D4"/>
<path transform="translate(830,91)" d="m0 0 1 3-5 5-2-1 3-3-8 1 3-2z" fill="#10B981"/>
<path transform="translate(487,596)" d="m0 0h1l1 10 1 5-3 2z" fill="#06B6D4"/>
<path transform="translate(588,502)" d="m0 0 8 5 3 4-5-1-6-5z" fill="#10B981"/>
<path transform="translate(819,323)" d="m0 0 5 2 1 2-4 1-2 4h-1z" fill="#10B981"/>
<path transform="translate(812,275)" d="m0 0h2v7l-1 5-2-1v-7z" fill="#020617"/>
</svg>
